<?xml version="1.0" encoding="UTF-8"?>
<!DOCTYPE svg PUBLIC "-//W3C//DTD SVG 1.1//EN" "http://www.w3.org/Graphics/SVG/1.1/DTD/svg11.dtd">
<svg xmlns="http://www.w3.org/2000/svg" version="1.1" width="32px" height="32px" style="shape-rendering:geometricPrecision; text-rendering:geometricPrecision; image-rendering:optimizeQuality; fill-rule:evenodd; clip-rule:evenodd" xmlns:xlink="http://www.w3.org/1999/xlink">
<g><path style="opacity:0.926" fill="#020202" d="M 9.5,-0.5 C 13.5,-0.5 17.5,-0.5 21.5,-0.5C 25.8333,1.83333 29.1667,5.16667 31.5,9.5C 31.5,13.5 31.5,17.5 31.5,21.5C 29.1667,25.8333 25.8333,29.1667 21.5,31.5C 17.5,31.5 13.5,31.5 9.5,31.5C 5.16667,29.1667 1.83333,25.8333 -0.5,21.5C -0.5,17.5 -0.5,13.5 -0.5,9.5C 1.83333,5.16667 5.16667,1.83333 9.5,-0.5 Z"/></g>
<g><path style="opacity:1" fill="#e9e9e9" d="M 13.5,6.5 C 15.451,6.22672 16.951,6.89339 18,8.5C 19.5382,13.6152 21.3715,18.6152 23.5,23.5C 22.675,24.3857 21.675,24.719 20.5,24.5C 20.6247,21.1075 18.958,19.7741 15.5,20.5C 12.042,19.7741 10.3753,21.1075 10.5,24.5C 9.32496,24.719 8.32496,24.3857 7.5,23.5C 9.79268,17.9192 11.7927,12.2525 13.5,6.5 Z"/></g>
<g><path style="opacity:1" fill="#121212" d="M 14.5,10.5 C 16.5549,12.2339 17.8882,14.5672 18.5,17.5C 16.5,18.8333 14.5,18.8333 12.5,17.5C 13.5771,15.2706 14.2437,12.9372 14.5,10.5 Z"/></g>
</svg>
